<svg xmlns="http://www.w3.org/2000/svg" viewBox="0 0 120 120" width="120" height="120" role="img" aria-label="SlyTherm mark">
  <defs>
    <linearGradient id="w" x1="0" y1="0" x2="1" y2="1"><stop offset="0" stop-color="#FFB020"/><stop offset="1" stop-color="#FF6A12"/></linearGradient>
    <linearGradient id="c" x1="1" y1="1" x2="0" y2="0"><stop offset="0" stop-color="#0E93C4"/><stop offset="1" stop-color="#5CCBF6"/></linearGradient>
    <clipPath id="f"><circle cx="60" cy="60" r="52"/></clipPath>
  </defs>
  <circle cx="60" cy="60" r="58" fill="#0A0E13"/>
  <g clip-path="url(#f)">
    <path d="M0 0 H120 V44 C92 40 78 74 60 66 C42 58 28 30 0 52 Z" fill="url(#w)"/>
    <path d="M0 52 C28 30 42 58 60 66 C78 74 92 40 120 44 V120 H0 Z" fill="url(#c)"/>
    <path d="M0 52 C28 30 42 58 60 66 C78 74 92 40 120 44" fill="none" stroke="#0A0E13" stroke-width="3"/>
  </g>
  <circle cx="60" cy="60" r="55" fill="none" stroke="#39B2FF" stroke-width="3"/>
</svg>
